<svg xmlns="http://www.w3.org/2000/svg" xmlns:xlink="http://www.w3.org/1999/xlink" width="500" zoomAndPan="magnify" viewBox="0 0 375 374.999991" height="500" preserveAspectRatio="xMidYMid meet" version="1.0"><defs><clipPath id="3f22a7c82e"><path d="M 0.601562 1.5 L 140.75 1.5 L 140.75 301.5 L 0.601562 301.5 Z M 0.601562 1.5 " clip-rule="nonzero"/></clipPath><clipPath id="735ad78dcd"><path d="M 156.398438 1.5 L 295.898438 1.5 L 295.898438 301.5 L 156.398438 301.5 Z M 156.398438 1.5 " clip-rule="nonzero"/></clipPath><clipPath id="90f1b3cf71"><rect x="0" width="298" y="0" height="302"/></clipPath></defs><g transform="matrix(1, 0, 0, 1, 39, 36)"><g clip-path="url(#90f1b3cf71)"><g clip-path="url(#3f22a7c82e)"><path fill="#ff3131" d="M 0.875 68.34375 C 0.875 63.03125 2.6875 57.78125 6.375 52.71875 C 10.0625 47.65625 14.5625 44.09375 19.9375 42.09375 L 122.125 2.78125 C 123.4375 2.28125 124.6875 1.96875 125.75 1.78125 C 126.8125 1.59375 127.875 1.53125 128.875 1.53125 C 132.5625 1.53125 135.5 2.71875 137.75 5.03125 C 140 7.34375 141.125 10.53125 141.125 14.53125 L 141.125 234.65625 C 141.125 239.96875 139.3125 245.21875 135.625 250.28125 C 131.9375 255.34375 127.4375 258.90625 122.0625 260.90625 L 19.8125 300.15625 C 17.625 300.96875 15.375 301.40625 13.0625 301.40625 C 9.375 301.40625 6.4375 300.21875 4.1875 297.90625 C 1.9375 295.59375 0.8125 292.40625 0.8125 288.40625 L 0.8125 68.34375 Z M 109.4375 74.09375 C 109.4375 65.09375 107.3125 58.78125 103.0625 55.09375 C 98.8125 51.40625 93.875 49.59375 88.1875 49.59375 C 86 49.59375 83.875 49.78125 81.6875 50.21875 C 79.5 50.65625 77.4375 51.28125 75.4375 52.09375 L 42.9375 64.59375 C 40.75 65.40625 38.9375 67.03125 37.4375 69.34375 C 35.9375 71.65625 35.1875 74.09375 35.1875 76.59375 L 35.1875 250.96875 C 35.1875 252.78125 35.6875 254.28125 36.6875 255.46875 C 37.6875 256.65625 38.9375 257.21875 40.4375 257.21875 C 40.75 257.21875 41.625 257.03125 42.9375 256.71875 L 75.4375 244.21875 C 79.25 242.71875 83.1875 240.53125 87.1875 237.71875 C 91.1875 234.90625 94.875 231.40625 98.1875 227.34375 C 101.5 223.28125 104.25 218.59375 106.3125 213.34375 C 108.375 208.09375 109.4375 202.40625 109.4375 196.21875 Z M 79.1875 204.15625 C 79.1875 209.46875 76.9375 212.96875 72.4375 214.65625 L 65.1875 217.40625 L 65.1875 87.09375 L 72.4375 84.34375 C 73.625 83.84375 74.6875 83.59375 75.6875 83.59375 C 78 83.59375 79.1875 85.53125 79.1875 89.34375 Z M 79.1875 204.15625 " fill-opacity="1" fill-rule="nonzero"/></g><g clip-path="url(#735ad78dcd)"><path fill="#00bf63" d="M 156.398438 68.34375 C 156.398438 63.03125 158.210938 57.78125 161.898438 52.71875 C 165.585938 47.65625 170.085938 44.09375 175.398438 42.09375 L 277.460938 2.78125 C 278.773438 2.28125 280.023438 1.96875 281.085938 1.78125 C 282.148438 1.59375 283.210938 1.53125 284.210938 1.53125 C 287.898438 1.53125 290.835938 2.71875 293.085938 5.03125 C 295.335938 7.34375 296.460938 10.53125 296.460938 14.53125 L 296.460938 234.65625 C 296.460938 239.96875 294.648438 245.21875 290.960938 250.28125 C 287.273438 255.34375 282.773438 258.90625 277.460938 260.90625 L 175.398438 300.21875 C 173.210938 301.03125 170.960938 301.46875 168.648438 301.46875 C 164.960938 301.46875 162.023438 300.28125 159.773438 297.96875 C 157.523438 295.65625 156.398438 292.46875 156.398438 288.46875 Z M 265.960938 220.90625 C 265.460938 217.59375 265.023438 214.15625 264.585938 210.65625 C 264.148438 207.15625 263.960938 203.34375 263.960938 199.15625 L 263.960938 156.65625 C 263.960938 151.96875 262.710938 148.40625 260.210938 145.90625 C 257.710938 143.40625 254.523438 141.65625 250.710938 140.65625 C 254.523438 136.65625 257.648438 132.46875 259.960938 128.15625 C 262.273438 123.84375 263.460938 119.34375 263.460938 114.65625 L 263.460938 74.65625 C 263.460938 65.46875 261.398438 59.03125 257.210938 55.28125 C 253.023438 51.53125 248.210938 49.65625 242.710938 49.65625 C 240.710938 49.65625 238.648438 49.84375 236.585938 50.28125 C 234.523438 50.71875 232.460938 51.34375 230.460938 52.15625 L 200.460938 63.65625 C 198.273438 64.46875 196.460938 66.09375 194.960938 68.40625 C 193.460938 70.71875 192.710938 73.15625 192.710938 75.65625 L 192.710938 250.03125 C 192.710938 251.84375 193.210938 253.34375 194.210938 254.53125 C 195.210938 255.71875 196.460938 256.28125 197.960938 256.28125 C 198.273438 256.28125 199.148438 256.09375 200.460938 255.78125 L 214.460938 250.53125 C 216.773438 249.71875 218.773438 248.09375 220.335938 245.65625 C 221.898438 243.21875 222.710938 240.84375 222.710938 238.53125 L 222.710938 163.65625 L 227.460938 161.90625 C 228.648438 161.40625 229.710938 161.15625 230.710938 161.15625 C 233.523438 161.15625 234.960938 162.90625 234.960938 166.40625 L 234.960938 212.71875 C 234.960938 215.03125 235.023438 217.78125 235.085938 220.84375 C 235.148438 223.90625 235.460938 226.84375 235.960938 229.59375 C 236.460938 232.34375 237.148438 234.65625 238.085938 236.46875 C 239.023438 238.28125 240.273438 239.21875 241.960938 239.21875 C 242.648438 239.21875 243.648438 239.03125 244.960938 238.71875 L 257.960938 233.71875 C 260.273438 232.90625 262.210938 231.21875 263.710938 228.71875 C 265.210938 226.15625 265.960938 223.59375 265.960938 220.90625 Z M 234.960938 125.59375 C 234.960938 130.78125 232.898438 134.09375 228.710938 135.59375 L 222.710938 137.84375 L 222.710938 85.78125 L 228.710938 83.53125 C 229.398438 83.21875 230.273438 83.03125 231.460938 83.03125 C 233.773438 83.03125 234.960938 84.96875 234.960938 88.78125 Z M 234.960938 125.59375 " fill-opacity="1" fill-rule="nonzero"/></g></g></g></svg>