<svg xmlns="http://www.w3.org/2000/svg" xmlns:xlink="http://www.w3.org/1999/xlink" width="500" zoomAndPan="magnify" viewBox="0 0 375 374.999991" height="500" preserveAspectRatio="xMidYMid meet" version="1.0"><defs><clipPath id="e5263b930a"><path d="M 30.078125 30.078125 L 344.921875 30.078125 L 344.921875 344.921875 L 30.078125 344.921875 Z M 30.078125 30.078125 " clip-rule="nonzero"/></clipPath><clipPath id="2d1cd8fe8f"><path d="M 187.5 30.078125 C 100.558594 30.078125 30.078125 100.558594 30.078125 187.5 C 30.078125 274.441406 100.558594 344.921875 187.5 344.921875 C 274.441406 344.921875 344.921875 274.441406 344.921875 187.5 C 344.921875 100.558594 274.441406 30.078125 187.5 30.078125 Z M 187.5 30.078125 " clip-rule="nonzero"/></clipPath><clipPath id="d3775aaebb"><path d="M 0.078125 0.078125 L 314.921875 0.078125 L 314.921875 314.921875 L 0.078125 314.921875 Z M 0.078125 0.078125 " clip-rule="nonzero"/></clipPath><clipPath id="3bb8ec12f7"><path d="M 157.5 0.078125 C 70.558594 0.078125 0.078125 70.558594 0.078125 157.5 C 0.078125 244.441406 70.558594 314.921875 157.5 314.921875 C 244.441406 314.921875 314.921875 244.441406 314.921875 157.5 C 314.921875 70.558594 244.441406 0.078125 157.5 0.078125 Z M 157.5 0.078125 " clip-rule="nonzero"/></clipPath><clipPath id="7ce115e27a"><rect x="0" width="315" y="0" height="315"/></clipPath><clipPath id="7eb6c4f946"><path d="M 101 69 L 221 69 L 221 278 L 101 278 Z M 101 69 " clip-rule="nonzero"/></clipPath><clipPath id="58273ffb88"><path d="M 112.019531 43.171875 L 320.558594 93.378906 L 263.15625 331.816406 L 54.613281 281.609375 Z M 112.019531 43.171875 " clip-rule="nonzero"/></clipPath><clipPath id="a25a45518f"><path d="M 112.019531 43.171875 L 320.558594 93.378906 L 263.15625 331.816406 L 54.613281 281.609375 Z M 112.019531 43.171875 " clip-rule="nonzero"/></clipPath><clipPath id="bbf41b65eb"><path d="M 98 186 L 285 186 L 285 293 L 98 293 Z M 98 186 " clip-rule="nonzero"/></clipPath><clipPath id="be288fb501"><path d="M 112.019531 43.171875 L 320.558594 93.378906 L 263.15625 331.816406 L 54.613281 281.609375 Z M 112.019531 43.171875 " clip-rule="nonzero"/></clipPath><clipPath id="dbf6a79bcd"><path d="M 112.019531 43.171875 L 320.558594 93.378906 L 263.15625 331.816406 L 54.613281 281.609375 Z M 112.019531 43.171875 " clip-rule="nonzero"/></clipPath></defs><g clip-path="url(#e5263b930a)"><g clip-path="url(#2d1cd8fe8f)"><g transform="matrix(1, 0, 0, 1, 30, 30)"><g clip-path="url(#7ce115e27a)"><g clip-path="url(#d3775aaebb)"><g clip-path="url(#3bb8ec12f7)"><path fill="#000000" d="M 0.078125 0.078125 L 314.921875 0.078125 L 314.921875 314.921875 L 0.078125 314.921875 Z M 0.078125 0.078125 " fill-opacity="1" fill-rule="nonzero"/></g></g></g></g></g></g><g clip-path="url(#7eb6c4f946)"><g clip-path="url(#58273ffb88)"><g clip-path="url(#a25a45518f)"><path fill="#ffffff" d="M 101.574219 277.378906 C 105.601562 266.347656 110.351562 255.148438 115.507812 243.707031 C 133.519531 204.5 157.660156 164.027344 187.9375 122.292969 C 158.523438 151.894531 134.839844 189.046875 116.71875 234.398438 C 86.859375 147.667969 175.15625 121.269531 220.542969 69.457031 C 215.3125 109.683594 221.40625 112.863281 190.480469 135.933594 L 215.253906 121.324219 C 202.878906 167.03125 192.832031 164.613281 155.320312 192.265625 L 199.636719 166.25 C 176.078125 190.0625 175.71875 222.886719 126.933594 237.542969 Z M 101.574219 277.378906 " fill-opacity="1" fill-rule="evenodd"/></g></g></g><g clip-path="url(#bbf41b65eb)"><g clip-path="url(#be288fb501)"><g clip-path="url(#dbf6a79bcd)"><path fill="#ffffff" d="M 270.625 231.679688 C 264.035156 217.753906 249.511719 202.597656 227.382812 186.300781 C 245.8125 195.195312 264.960938 212.488281 284.503906 238.109375 C 191.746094 234.632812 129.492188 252.558594 98.386719 292.039062 C 125.746094 249.597656 183.128906 229.128906 270.625 231.679688 Z M 264.617188 275.148438 C 214.429688 258.605469 165.058594 261.464844 116.011719 282.910156 C 175.027344 264.207031 228.066406 264.632812 274.398438 284.359375 C 270.703125 268.382812 261.609375 254.882812 248.097656 244.085938 C 258.316406 257.171875 263.742188 267.394531 264.617188 275.148438 Z M 264.617188 275.148438 " fill-opacity="1" fill-rule="evenodd"/></g></g></g></svg>